<svg width="20" height="16" viewBox="0 0 20 16" fill="none" xmlns="http://www.w3.org/2000/svg">
<path d="M19.2857 0H0.714286C0.319196 0 0 0.325 0 0.727273V15.2727C0 15.675 0.319196 16 0.714286 16H19.2857C19.6808 16 20 15.675 20 15.2727V0.727273C20 0.325 19.6808 0 19.2857 0ZM6.11607 3.27273C6.90402 3.27273 7.54464 3.925 7.54464 4.72727C7.54464 5.52955 6.90402 6.18182 6.11607 6.18182C5.32812 6.18182 4.6875 5.52955 4.6875 4.72727C4.6875 3.925 5.32812 3.27273 6.11607 3.27273ZM17.5871 13.2068C17.5545 13.2346 17.5135 13.2499 17.471 13.25H2.52679C2.42857 13.25 2.34821 13.1682 2.34821 13.0682C2.34821 13.025 2.36384 12.9841 2.39063 12.95L6.19196 8.35909C6.25446 8.28182 6.3683 8.27273 6.4442 8.33636C6.45089 8.34318 6.45982 8.35 6.46652 8.35909L8.68527 11.0409L12.2143 6.77955C12.2768 6.70227 12.3906 6.69318 12.4665 6.75682C12.4732 6.76364 12.4821 6.77045 12.4888 6.77955L17.6138 12.9523C17.6719 13.0273 17.6629 13.1432 17.5871 13.2068Z" fill="#FFF6ED"/>
</svg>
