<svg width="22" height="22" viewBox="0 0 22 22" fill="none" xmlns="http://www.w3.org/2000/svg">
<path d="M11 0C4.92545 0 0 4.92545 0 11C0 17.0746 4.92545 22 11 22C17.0746 22 22 17.0746 22 11C22 4.92545 17.0746 0 11 0ZM15.3337 14.381L14.6315 15.3386C14.6162 15.3595 14.597 15.3771 14.5748 15.3905C14.5527 15.4039 14.5282 15.4128 14.5026 15.4166C14.4771 15.4205 14.451 15.4193 14.4259 15.4131C14.4009 15.4069 14.3772 15.3957 14.3565 15.3804L10.2953 12.4192C10.27 12.401 10.2494 12.377 10.2353 12.3493C10.2212 12.3215 10.214 12.2907 10.2143 12.2596V5.5C10.2143 5.39196 10.3027 5.30357 10.4107 5.30357H11.5917C11.6998 5.30357 11.7882 5.39196 11.7882 5.5V11.577L15.2895 14.1085C15.3779 14.1699 15.3975 14.2926 15.3337 14.381Z" fill="#FFF6ED"/>
</svg>
