<svg width="19" height="30" viewBox="0 0 19 30" fill="none" xmlns="http://www.w3.org/2000/svg">
<path d="M9.5 14.25C8.60016 14.25 7.73717 13.8549 7.10089 13.1517C6.4646 12.4484 6.10714 11.4946 6.10714 10.5C6.10714 9.50544 6.4646 8.55161 7.10089 7.84835C7.73717 7.14509 8.60016 6.75 9.5 6.75C10.3998 6.75 11.2628 7.14509 11.8991 7.84835C12.5354 8.55161 12.8929 9.50544 12.8929 10.5C12.8929 10.9925 12.8051 11.4801 12.6346 11.9351C12.4641 12.39 12.2142 12.8034 11.8991 13.1517C11.5841 13.4999 11.21 13.7761 10.7984 13.9645C10.3867 14.153 9.94556 14.25 9.5 14.25V14.25ZM9.5 0C6.98044 0 4.56408 1.10625 2.78249 3.07538C1.00089 5.04451 0 7.71523 0 10.5C0 18.375 9.5 30 9.5 30C9.5 30 19 18.375 19 10.5C19 7.71523 17.9991 5.04451 16.2175 3.07538C14.4359 1.10625 12.0196 0 9.5 0V0Z" fill="#41382F"/>
</svg>
