<svg width="19" height="19" viewBox="0 0 19 19" fill="none" xmlns="http://www.w3.org/2000/svg">
<path fill-rule="evenodd" clip-rule="evenodd" d="M19 0.593697C18.9999 0.505886 18.9804 0.419181 18.9428 0.339827C18.9052 0.260473 18.8505 0.190446 18.7826 0.134792C18.7146 0.0791376 18.6352 0.0392412 18.55 0.0179772C18.4648 -0.00328689 18.376 -0.00538921 18.2899 0.0118216L12.4688 1.17557L6.64762 0.0118216C6.5708 -0.00353361 6.4917 -0.00353361 6.41488 0.0118216L0.477375 1.19932C0.342825 1.22621 0.221743 1.29888 0.134714 1.40496C0.0476854 1.51104 8.28662e-05 1.64399 0 1.7812L0 18.4062C5.30251e-05 18.494 0.0195821 18.5807 0.0571802 18.6601C0.0947784 18.7394 0.149509 18.8094 0.21743 18.8651C0.285351 18.9208 0.364771 18.9607 0.449968 18.9819C0.535165 19.0032 0.624018 19.0053 0.710125 18.9881L6.53125 17.8243L12.3524 18.9881C12.4292 19.0034 12.5083 19.0034 12.5851 18.9881L18.5226 17.8006C18.6572 17.7737 18.7783 17.701 18.8653 17.5949C18.9523 17.4889 18.9999 17.3559 19 17.2187V0.593697ZM5.9375 16.7318V1.31807L6.53125 1.19932L7.125 1.31807V16.7318L6.64762 16.6368C6.57081 16.6214 6.49169 16.6214 6.41488 16.6368L5.9375 16.7318ZM11.875 17.6818V2.26807L12.3524 2.36307C12.4292 2.37843 12.5083 2.37843 12.5851 2.36307L13.0625 2.26807V17.6818L12.4688 17.8006L11.875 17.6818Z" fill="#FFF6ED"/>
</svg>
