<svg width="201" height="40" viewBox="0 0 201 40" fill="none" xmlns="http://www.w3.org/2000/svg">
<path d="M0 31.3666C1.59761 28.4718 4.13379 26.5306 6.68506 24.4063C5.2914 23.7756 4.07335 24.7405 2.64759 24.6593C3.3803 22.8031 4.93448 22.2234 6.38102 21.4605C7.07407 21.0942 8.33177 21.4265 8.3431 20.1274C8.35443 18.7942 8.17503 17.4706 6.90789 16.6642C6.58875 16.4603 6.27338 16.245 5.84281 15.9599C8.40542 15.5275 9.98604 17.2647 11.8027 18.3448C12.3447 17.1061 11.9349 15.6238 13.1133 14.6929C13.8101 14.1415 14.3691 13.7827 14.7694 14.9534C14.8623 15.2145 14.9773 15.4672 15.1131 15.7088C15.5097 16.4377 15.9648 17.3931 16.7183 17.4347C17.4718 17.4762 17.4567 16.3017 17.8627 15.7144C19.7832 12.9216 21.2845 9.73418 24.5968 8.27641C24.9387 8.12535 25.2899 8.03283 25.035 7.39647C24.4684 5.98591 25.1634 4.99644 26.1038 3.92388C27.1009 2.7909 27.7468 1.32181 28.5456 0H30.1677C30.4925 0.307793 30.8022 0.866732 31.1422 0.887503C33.4649 1.02346 34.6376 2.58696 35.6215 4.46393C35.7137 4.65005 35.8523 4.80936 36.0238 4.92657C37.2852 5.68189 37.5572 6.40511 36.2032 7.45312C35.1419 8.27641 34.768 9.23001 35.5214 10.7765C36.3032 12.3873 35.9293 14.1962 34.598 15.6559C34.0315 16.2715 33.2308 16.753 33.0287 17.9219C34.3506 17.9219 35.6177 17.8633 36.8679 17.937C38.0774 18.0031 39.2807 18.1539 40.4691 18.3883C41.6173 18.6319 42.7995 18.8207 44.3102 19.7214H39.0755C39.8101 20.3162 40.6466 20.5541 41.3624 20.9979C42.5162 21.7136 44.0874 21.8269 44.6954 23.3583C44.5781 23.3424 44.4589 23.3706 44.3612 23.4376C42.6616 22.9523 40.9771 22.3556 38.7771 22.7483C40.8921 24.0588 42.4841 25.4599 43.6171 27.5314L41.115 27.1896C40.0046 26.8422 38.9263 27.1387 37.255 27.2519L40.6542 28.1772C41.2774 28.772 42.4086 28.8079 42.6446 30.0655C41.3794 29.8125 40.2369 29.3461 39.0132 29.973C39.659 31.0153 40.9016 31.5648 40.6769 33.0849L38.3371 32.3296L37.1549 32.0596C36.8188 31.7159 36.4751 31.6819 36.0068 32.0596L37.0378 32.1898C37.2267 32.9452 38.4995 32.9924 38.2446 34.1254L36.6734 33.7987C35.3515 33.1246 34.0296 32.4542 32.3545 32.6657C33.0363 33.6495 33.8483 34.4029 33.954 35.551C32.8833 35.4283 32.2544 34.4898 31.348 34.0593C30.2565 33.5381 29.2424 32.6279 27.9488 33.1529C28.166 34.2084 28.6135 35.1243 28.5153 36.227C27.4616 35.4094 26.4891 34.6069 25.4693 33.8742C24.7857 33.3851 24.0756 32.8715 23.8622 34.3878C23.6885 35.6171 23.173 35.7096 22.3723 34.69C21.3015 33.3266 19.9834 32.2824 18.1856 32.0671C17.7399 33.489 18.484 34.9317 17.9005 36.5745C16.469 34.486 14.9677 33.9195 12.864 35.2092C11.865 35.8229 10.5375 36.0703 9.1589 35.8834C9.46672 35.0525 10.1749 34.5918 10.1957 33.7231C8.63581 33.5891 7.17416 34.7617 5.51234 34.0309C6.68128 33.3625 7.82 32.8319 8.13915 31.3023C5.56899 31.1343 4.43027 33.7571 2.16981 34.2991C2.96673 32.2994 3.97138 30.6792 5.0119 29.0817C5.22341 28.9458 5.53311 28.7362 5.32539 28.5152C5.11766 28.2943 4.72675 28.366 4.50203 28.6871C2.82321 29.2687 1.85066 31.0946 0 31.3666ZM19.0241 25.2409L19.8663 23.2223C20.1534 22.7559 20.0174 21.9798 20.7841 21.8382C21.2524 23.228 20.9352 24.5215 20.6179 25.8527C20.5197 26.2681 19.5698 27.0159 20.6538 27.2916C21.4299 27.4804 21.4545 26.5646 21.598 26.0415C22.0021 24.6574 21.8039 23.0939 22.7311 21.6985C23.8226 23.4886 23.0559 25.4109 23.4506 27.3426C23.9586 26.3739 24.5138 21.3 24.0171 20.6221C23.5488 19.9688 22.6669 19.627 21.598 18.8981C21.87 19.931 21.8057 20.5976 21.4866 21.149C21.3318 21.419 20.8483 21.3529 20.6708 20.9601C20.5952 20.715 20.5514 20.4611 20.5405 20.2048C20.5669 20.2048 20.6141 20.2218 20.6141 20.235C20.6746 20.7165 19.9759 20.5032 20.0136 20.8657C20.0892 21.621 19.534 22.1422 19.4471 22.8239C19.1393 23.532 18.7238 24.2061 18.7521 25.0275C18.2668 25.4052 18.1856 25.8546 18.4424 26.4268C19.0165 26.1851 18.6861 25.543 19.0241 25.2409ZM5.518 31.0153C6.59063 30.6131 7.7237 29.9522 8.80388 30.6377C9.71033 31.2042 8.47152 32.0936 8.73968 32.8583C11.3117 32.4807 11.3117 32.4807 11.3325 34.6843C13.3021 35.0827 14.9205 31.663 16.9411 34.2764C17.7664 33.1812 16.2802 31.427 17.8438 31.055C18.9372 30.7944 20.1477 31.6649 21.1561 32.39C21.4885 32.6279 21.7812 32.9225 22.1136 33.1585C22.5158 33.4437 22.935 33.489 22.8689 32.8224C22.7518 31.5403 23.5639 32.0671 24.002 32.2446C24.9859 32.6449 25.9188 33.1888 26.863 33.6552C27.1236 33.1774 26.5231 32.0841 27.4446 32.1842C30.1432 32.4807 32.126 30.0353 34.8095 30.2506L34.1655 29.9617C34.7887 28.9873 35.9312 29.0893 36.7942 28.6115C35.9388 28.0715 34.8964 28.1697 33.8275 27.8562C36.2258 26.4966 38.6676 26.1133 41.4436 26.1152C40.0235 24.242 38.2502 23.6132 36.4713 22.6747C37.7385 21.8363 38.9263 21.8174 40.286 21.5568C38.3711 20.5579 36.5185 20.4238 34.5848 20.3521C34.8586 19.4514 35.8141 19.6251 36.1446 18.8887C34.4186 18.4978 32.6812 19.0378 31.0081 18.511C30.6304 18.3939 29.9052 18.7924 29.6352 19.1738C27.7732 21.7966 27.2841 21.9364 24.9141 20.0688V24.901C24.9141 27.6749 24.797 27.2444 22.1985 27.9846C19.8758 28.6474 17.4775 27.454 15.0716 29.3612C15.9138 26.2417 16.9959 23.9021 18.0402 21.5398C17.4548 21.2226 17.0563 21.351 16.5521 21.7287C15.7323 22.3141 14.8584 22.82 13.9423 23.2393C13.219 23.5886 12.4165 23.583 11.9934 22.7635C11.5704 21.9439 12.4013 21.6947 12.8413 21.3623C13.5464 20.8602 14.2763 20.3939 15.0282 19.965C15.9818 19.3834 16.6295 18.7603 15.5456 17.6783C15.1724 17.2766 14.8284 16.8488 14.5164 16.398C14.2445 16.0203 14.1387 15.3141 13.5929 15.4538C12.983 15.6181 12.8376 16.3168 12.7507 16.9267C12.7158 17.2733 12.7158 17.6225 12.7507 17.9691C12.8923 19.8064 12.0274 19.4929 10.9472 18.9132C10.2939 18.5639 9.84063 17.5782 8.79255 18.1371C9.54792 19.0492 8.50929 20.9696 10.7282 21.0281C8.83032 21.7136 6.95132 21.8495 4.94581 23.3205H10.3939C8.25057 24.6857 6.38668 25.4335 4.9477 27.1254C6.28282 27.1991 7.42154 26.3267 8.71134 27.1141C7.29502 28.2018 5.87869 29.0666 5.14032 30.6245L4.73997 31.1909C5.05911 31.3873 5.32538 31.3571 5.518 31.0097V31.0153ZM31.2574 10.0231C32.4546 8.99397 34.0069 9.52458 34.5583 8.06492C35.7575 4.88503 33.3327 1.43699 30.0658 1.73912C28.0602 1.92795 25.3447 5.55727 26.2794 7.04336C27.1462 8.41049 26.795 8.8108 25.3541 9.09027C25.7406 9.16812 26.1345 9.20296 26.5287 9.19413C28.1226 9.20735 30.0525 8.81647 30.6719 10.8426C31.2083 12.6044 30.2112 13.998 28.9497 15.3519C27.4824 16.9248 25.5902 17.6348 23.6621 18.7508C26.9007 19.0529 29.6201 18.1975 32.16 16.6737C32.7681 16.3111 33.718 15.8277 32.2733 15.2272C31.9259 15.0818 31.635 14.7967 31.8522 14.4568C31.9882 14.2453 32.449 14.1075 32.719 14.1623C33.2704 14.2774 33.8747 14.876 34.2996 14.1075C34.8926 13.0312 34.7566 11.783 34.53 10.6632C34.3279 9.67564 33.2969 10.1232 32.6133 10.0193C32.2941 9.97589 31.9523 10.0174 31.2574 10.0174V10.0231ZM16.352 20.4087C16.8902 20.6334 17.5417 20.3955 18.2404 20.0575C21.2373 18.5979 24.0077 16.6945 27.2274 15.6465C28.5361 15.2197 29.4671 13.7582 29.7579 12.1871C30.0072 10.8407 29.5068 10.1553 28.0829 10.0193C25.5127 9.77384 23.3618 10.5556 21.513 12.374C20.3932 13.4787 19.1261 14.5871 19.0014 16.2413C18.8428 18.2901 17.3188 19.1228 16.3614 20.3993L16.352 20.4087ZM38.6185 30.0938C38.8923 30.0938 39.1548 30.0938 39.0887 29.6973C39.0377 29.3801 38.7998 29.297 38.5222 29.2913C38.2446 29.2856 37.9556 29.2913 37.9349 29.6331C37.8895 30.1505 38.3692 29.9617 38.6185 30.0938Z" fill="#353335"/>
<path d="M5.14036 30.6433C5.88252 29.0854 7.29507 28.2206 8.71139 27.1329C7.42159 26.3455 6.28287 27.2179 4.94774 27.1442C6.38673 25.4448 8.25061 24.7046 10.394 23.3393H4.94397C6.95704 21.8683 8.82848 21.7324 10.7264 21.0469C8.50744 20.994 9.53853 19.068 8.79071 18.1559C9.83879 17.5894 10.292 18.5827 10.9454 18.932C12.0256 19.4985 12.8905 19.8214 12.7489 17.9879C12.7139 17.6413 12.7139 17.2921 12.7489 16.9455C12.8282 16.3356 12.9811 15.6369 13.5911 15.4727C14.1425 15.3254 14.2426 16.0392 14.5145 16.4168C14.8266 16.8676 15.1705 17.2954 15.5437 17.6971C16.6277 18.7791 15.98 19.3965 15.0263 19.9838C14.2744 20.4127 13.5446 20.879 12.8395 21.3811C12.3995 21.7135 11.5705 21.9722 11.9916 22.7823C12.4127 23.5923 13.2172 23.6075 13.9405 23.2581C14.8565 22.8388 15.7304 22.3329 16.5503 21.7475C17.0545 21.3698 17.453 21.2376 18.0384 21.5586C16.9941 23.9209 15.912 26.2605 15.0697 29.38C17.4737 27.4728 19.8739 28.6662 22.1967 28.0034C24.7952 27.2632 24.9104 27.6937 24.9123 24.9198V20.0669C27.2822 21.9344 27.7713 21.7947 29.6333 19.1718C29.9034 18.7942 30.6361 18.392 31.0062 18.509C32.6794 19.0321 34.4167 18.492 36.1428 18.8867C35.8123 19.6231 34.8568 19.4532 34.5829 20.3501C36.5167 20.4219 38.3692 20.556 40.2841 21.5549C38.9301 21.8155 37.7366 21.8343 36.4695 22.6728C38.2484 23.6169 40.0216 24.24 41.4417 26.1132C38.6657 26.1132 36.224 26.4909 33.8257 27.8542C34.8945 28.1753 35.9369 28.0771 36.7924 28.6096C35.9294 29.0854 34.7869 28.9872 34.1637 29.9578L34.8001 30.2354C32.1223 30.0201 30.1394 32.4655 27.4352 32.169C26.5137 32.0689 27.1142 33.1622 26.8536 33.64C25.9094 33.166 24.9765 32.6298 23.9926 32.2294C23.5601 32.0538 22.7481 31.5251 22.8595 32.8073C22.9219 33.4738 22.5026 33.4285 22.1042 33.1434C21.7718 32.9073 21.4791 32.6128 21.1467 32.3748C20.1383 31.6497 18.9278 30.7792 17.8344 31.0398C16.2708 31.4175 17.757 33.166 16.9317 34.2612C14.913 31.6497 13.2927 35.0675 11.3231 34.6691C11.3023 32.4636 11.3023 32.4636 8.73028 32.8431C8.46212 32.0878 9.70093 31.1965 8.79448 30.6225C7.7143 29.9408 6.58124 30.6017 5.50861 31.0001L5.14036 30.6433Z" fill="#F5E4D1"/>
<path d="M31.2573 10.0174C31.9523 10.0174 32.2941 9.97586 32.6227 10.0174C33.3063 10.1213 34.3374 9.67373 34.5394 10.6613C34.7661 11.7811 34.902 13.0292 34.3091 14.1056C33.8842 14.8741 33.2799 14.2755 32.7284 14.1603C32.4584 14.1056 31.9976 14.2434 31.8616 14.4549C31.6445 14.7948 31.9353 15.0799 32.2828 15.2253C33.7274 15.8258 32.7775 16.3092 32.1695 16.6718C29.622 18.1824 26.9026 19.0435 23.6715 18.7489C25.5977 17.6291 27.4899 16.9191 28.9591 15.35C30.2206 13.9961 31.2252 12.6025 30.6814 10.8407C30.062 8.807 28.132 9.20544 26.5382 9.19222C26.144 9.20105 25.7501 9.16622 25.3635 9.08837C26.8044 8.8089 27.1557 8.40857 26.2889 7.04144C25.3447 5.55535 28.0697 1.92227 30.0752 1.73722C33.3422 1.43509 35.7669 4.88312 34.5678 8.06302C34.0069 9.5189 32.4546 8.98828 31.2573 10.0174Z" fill="#7D6C59"/>
<path d="M16.3615 20.3992C17.3283 19.1227 18.8523 18.29 19.0053 16.2317C19.1299 14.5776 20.397 13.4692 21.5169 12.3645C23.3619 10.5461 25.5166 9.76432 28.0867 10.0098C29.5106 10.1458 30.011 10.8312 29.7618 12.1776C29.471 13.7467 28.54 15.2102 27.2313 15.6369C24.0209 16.6849 21.2412 18.5883 18.2442 20.048C17.5417 20.386 16.8902 20.6239 16.3615 20.3992ZM23.326 13.826C23.5451 13.7241 23.8472 13.6051 23.5432 13.3275C23.2826 13.0896 23.1353 13.4673 22.9408 13.5768C22.8336 13.6305 22.7473 13.7181 22.6953 13.826C22.1816 14.1905 21.5093 14.3283 21.1845 14.959C20.4801 15.2744 19.7965 15.6086 19.4566 16.8001C20.4197 16.3375 21.0467 15.9409 21.5339 15.3102C22.0286 14.9968 22.6084 14.7966 22.9011 14.2169L23.326 13.826Z" fill="#7D6C59"/>
<path d="M19.4679 22.8257C19.551 22.1441 20.1062 21.6172 20.0344 20.8676C19.9967 20.505 20.6954 20.7184 20.6349 20.2369C20.6349 20.2237 20.5877 20.2161 20.5613 20.2067C20.5722 20.463 20.616 20.7168 20.6916 20.962C20.8691 21.3604 21.3525 21.4265 21.5074 21.1508C21.8265 20.6051 21.8851 19.9329 21.6188 18.9C22.6877 19.6288 23.5696 19.9706 24.0379 20.624C24.5289 21.3113 23.9737 26.3757 23.4714 27.3444C23.0767 25.4127 23.8491 23.4904 22.7519 21.7003C21.8228 23.0901 22.0211 24.6536 21.6188 26.0434C21.4659 26.5665 21.4413 27.4917 20.6746 27.2935C19.5906 27.0178 20.5405 26.27 20.6387 25.8546C20.956 24.5233 21.2732 23.2298 20.8049 21.84C20.0382 21.9817 20.1742 22.7578 19.8871 23.2242L19.4679 22.8257Z" fill="#7D6C59"/>
<path d="M18.773 25.0294C18.7447 24.208 19.1601 23.5339 19.4679 22.8257L19.8664 23.2166C19.5844 23.8889 19.3036 24.5617 19.0241 25.2352L18.773 25.0294Z" fill="#7D6C59"/>
<path d="M19.0241 25.2409C18.686 25.5487 19.0241 26.1851 18.4575 26.4343C18.1951 25.8678 18.2819 25.4033 18.7672 25.0351L19.0241 25.2409Z" fill="#7D6C59"/>
<path d="M21.5244 15.3141C21.041 15.9447 20.414 16.3413 19.4471 16.8039C19.7871 15.6124 20.4707 15.2782 21.1751 14.9628L21.5244 15.3141Z" fill="#353335"/>
<path d="M22.8916 14.2208C22.5989 14.8005 22.0192 15.0006 21.5244 15.3141L21.1788 14.9629C21.4999 14.3284 22.1721 14.1906 22.6896 13.8299L22.8916 14.2208Z" fill="#353335"/>
<path d="M22.9313 13.5768C23.1201 13.4673 23.2731 13.0896 23.5337 13.3275C23.8377 13.6051 23.5337 13.7241 23.3165 13.826L22.9313 13.5768Z" fill="#353335"/>
<path d="M55.3302 9V1.89062H57.8204C58.6831 1.89062 59.3374 2.05664 59.7833 2.38867C60.2293 2.71745 60.4523 3.20085 60.4523 3.83887C60.4523 4.18717 60.3628 4.49479 60.1837 4.76172C60.0047 5.02539 59.7557 5.21908 59.4366 5.34277C59.8012 5.43392 60.0877 5.61784 60.296 5.89453C60.5076 6.17122 60.6134 6.50977 60.6134 6.91016C60.6134 7.59375 60.3953 8.11133 59.9591 8.46289C59.5229 8.81445 58.9012 8.99349 58.0939 9H55.3302ZM56.795 5.9043V7.82324H58.0499C58.395 7.82324 58.6635 7.74186 58.8556 7.5791C59.0509 7.41309 59.1486 7.18522 59.1486 6.89551C59.1486 6.24447 58.8116 5.91406 58.1378 5.9043H56.795ZM56.795 4.86914H57.879C58.618 4.85612 58.9874 4.56152 58.9874 3.98535C58.9874 3.66309 58.893 3.43197 58.7042 3.29199C58.5187 3.14876 58.2241 3.07715 57.8204 3.07715H56.795V4.86914ZM66.0882 8.46289C65.7399 8.88607 65.2581 9.09766 64.6429 9.09766C64.0765 9.09766 63.6435 8.9349 63.3441 8.60938C63.0478 8.28385 62.8965 7.80697 62.89 7.17871V3.7168H64.3011V7.12988C64.3011 7.68001 64.5517 7.95508 65.0531 7.95508C65.5316 7.95508 65.8603 7.78906 66.0394 7.45703V3.7168H67.4554V9H66.1273L66.0882 8.46289ZM71.1187 3.7168L71.1626 4.32715C71.5402 3.85514 72.0464 3.61914 72.6812 3.61914C73.2411 3.61914 73.6577 3.78353 73.9312 4.1123C74.2046 4.44108 74.3446 4.93262 74.3511 5.58691V9H72.94V5.62109C72.94 5.32161 72.8749 5.10514 72.7447 4.97168C72.6144 4.83496 72.398 4.7666 72.0952 4.7666C71.6981 4.7666 71.4003 4.93587 71.2017 5.27441V9H69.7906V3.7168H71.1187ZM76.5202 6.31934C76.5202 5.50879 76.7123 4.85612 77.0964 4.36133C77.4838 3.86654 78.0046 3.61914 78.6589 3.61914C79.2383 3.61914 79.6892 3.81771 80.0114 4.21484L80.07 3.7168H81.3493V8.82422C81.3493 9.28646 81.2435 9.68848 81.032 10.0303C80.8236 10.3721 80.529 10.6325 80.1482 10.8115C79.7673 10.9906 79.3213 11.0801 78.8103 11.0801C78.4229 11.0801 78.0453 11.002 77.6775 10.8457C77.3096 10.6927 77.0313 10.4941 76.8425 10.25L77.4675 9.39062C77.8191 9.78451 78.2455 9.98145 78.7468 9.98145C79.1212 9.98145 79.4125 9.88053 79.6208 9.67871C79.8292 9.48014 79.9333 9.19694 79.9333 8.8291V8.5459C79.6078 8.91374 79.1797 9.09766 78.6491 9.09766C78.0144 9.09766 77.5001 8.85026 77.1062 8.35547C76.7156 7.85742 76.5202 7.19824 76.5202 6.37793V6.31934ZM77.9314 6.42188C77.9314 6.90039 78.0274 7.27637 78.2195 7.5498C78.4115 7.81999 78.6752 7.95508 79.0105 7.95508C79.4402 7.95508 79.7478 7.79395 79.9333 7.47168V5.25C79.7445 4.92773 79.4402 4.7666 79.0202 4.7666C78.6817 4.7666 78.4148 4.90495 78.2195 5.18164C78.0274 5.45833 77.9314 5.87174 77.9314 6.42188ZM86.7997 9C86.7346 8.87305 86.6874 8.71517 86.6581 8.52637C86.3163 8.90723 85.872 9.09766 85.3251 9.09766C84.8075 9.09766 84.3779 8.94792 84.0361 8.64844C83.6975 8.34896 83.5282 7.97135 83.5282 7.51562C83.5282 6.95573 83.735 6.52604 84.1484 6.22656C84.565 5.92708 85.1656 5.77572 85.9501 5.77246H86.5995V5.46973C86.5995 5.22559 86.5361 5.03027 86.4091 4.88379C86.2854 4.7373 86.0885 4.66406 85.8183 4.66406C85.5807 4.66406 85.3935 4.72103 85.2568 4.83496C85.1233 4.94889 85.0566 5.10514 85.0566 5.30371H83.6454C83.6454 4.99772 83.7398 4.71452 83.9286 4.4541C84.1174 4.19368 84.3844 3.99023 84.7294 3.84375C85.0745 3.69401 85.4618 3.61914 85.8915 3.61914C86.5426 3.61914 87.0585 3.78353 87.4394 4.1123C87.8235 4.43783 88.0156 4.89681 88.0156 5.48926V7.7793C88.0188 8.2806 88.0888 8.65983 88.2255 8.91699V9H86.7997ZM85.6327 8.01855C85.8411 8.01855 86.0331 7.97298 86.2089 7.88184C86.3847 7.78743 86.5149 7.66211 86.5995 7.50586V6.59766H86.0722C85.3658 6.59766 84.9898 6.8418 84.9443 7.33008L84.9394 7.41309C84.9394 7.58887 85.0012 7.73372 85.1249 7.84766C85.2486 7.96159 85.4179 8.01855 85.6327 8.01855ZM91.8888 9H90.4728V1.5H91.8888V9ZM94.1361 6.30957C94.1361 5.78548 94.237 5.31836 94.4388 4.9082C94.6406 4.49805 94.9303 4.18066 95.3079 3.95605C95.6888 3.73145 96.1299 3.61914 96.6312 3.61914C97.3441 3.61914 97.9251 3.83724 98.3743 4.27344C98.8268 4.70964 99.0791 5.30208 99.1312 6.05078L99.1409 6.41211C99.1409 7.22266 98.9147 7.8737 98.4622 8.36523C98.0098 8.85352 97.4027 9.09766 96.6409 9.09766C95.8792 9.09766 95.2705 8.85352 94.8148 8.36523C94.3623 7.87695 94.1361 7.21289 94.1361 6.37305V6.30957ZM95.5472 6.41211C95.5472 6.91341 95.6416 7.29753 95.8304 7.56445C96.0192 7.82812 96.2894 7.95996 96.6409 7.95996C96.9827 7.95996 97.2497 7.82975 97.4417 7.56934C97.6338 7.30566 97.7298 6.88574 97.7298 6.30957C97.7298 5.81803 97.6338 5.43717 97.4417 5.16699C97.2497 4.89681 96.9795 4.76172 96.6312 4.76172C96.2861 4.76172 96.0192 4.89681 95.8304 5.16699C95.6416 5.43392 95.5472 5.84896 95.5472 6.41211ZM105.905 7.08105L106.598 3.7168H107.96L106.613 9H105.431L104.43 5.6748L103.429 9H102.252L100.905 3.7168H102.267L102.956 7.07617L103.922 3.7168H104.943L105.905 7.08105Z" fill="#1D1814"/>
<path d="M60.8126 16.9375L65.1954 29.3125L69.5548 16.9375H74.172V34H70.6447V29.3359L70.9962 21.2852L66.3907 34H63.9767L59.3829 21.2969L59.7345 29.3359V34H56.2189V16.9375H60.8126ZM84.6134 32.7109C83.7775 33.7266 82.6212 34.2344 81.1447 34.2344C79.7853 34.2344 78.7462 33.8438 78.0275 33.0625C77.3165 32.2812 76.9532 31.1367 76.9376 29.6289V21.3203H80.3243V29.5117C80.3243 30.832 80.9259 31.4922 82.129 31.4922C83.2775 31.4922 84.0665 31.0938 84.4962 30.2969V21.3203H87.8947V34H84.7072L84.6134 32.7109ZM97.3165 30.4961C97.3165 30.082 97.1095 29.7578 96.6954 29.5234C96.2892 29.2812 95.6329 29.0664 94.7267 28.8789C91.7111 28.2461 90.2032 26.9648 90.2032 25.0352C90.2032 23.9102 90.6681 22.9727 91.5978 22.2227C92.5353 21.4648 93.7579 21.0859 95.2657 21.0859C96.8751 21.0859 98.1603 21.4648 99.1212 22.2227C100.09 22.9805 100.574 23.9648 100.574 25.1758H97.1876C97.1876 24.6914 97.0314 24.293 96.7189 23.9805C96.4064 23.6602 95.9181 23.5 95.254 23.5C94.6837 23.5 94.2423 23.6289 93.9298 23.8867C93.6173 24.1445 93.4611 24.4727 93.4611 24.8711C93.4611 25.2461 93.6368 25.5508 93.9884 25.7852C94.3478 26.0117 94.9493 26.2109 95.7931 26.3828C96.6368 26.5469 97.3478 26.7344 97.9259 26.9453C99.715 27.6016 100.609 28.7383 100.609 30.3555C100.609 31.5117 100.113 32.4492 99.1212 33.168C98.129 33.8789 96.8478 34.2344 95.2775 34.2344C94.215 34.2344 93.2697 34.0469 92.4415 33.6719C91.6212 33.2891 90.9767 32.7695 90.5079 32.1133C90.0392 31.4492 89.8048 30.7344 89.8048 29.9688H93.0157C93.047 30.5703 93.2697 31.0312 93.6837 31.3516C94.0978 31.6719 94.6525 31.832 95.3478 31.832C95.9962 31.832 96.4845 31.7109 96.8126 31.4688C97.1486 31.2188 97.3165 30.8945 97.3165 30.4961ZM109.668 30.4961C109.668 30.082 109.461 29.7578 109.047 29.5234C108.641 29.2812 107.984 29.0664 107.078 28.8789C104.063 28.2461 102.555 26.9648 102.555 25.0352C102.555 23.9102 103.02 22.9727 103.949 22.2227C104.887 21.4648 106.109 21.0859 107.617 21.0859C109.227 21.0859 110.512 21.4648 111.473 22.2227C112.442 22.9805 112.926 23.9648 112.926 25.1758H109.539C109.539 24.6914 109.383 24.293 109.07 23.9805C108.758 23.6602 108.27 23.5 107.606 23.5C107.035 23.5 106.594 23.6289 106.281 23.8867C105.969 24.1445 105.813 24.4727 105.813 24.8711C105.813 25.2461 105.988 25.5508 106.34 25.7852C106.699 26.0117 107.301 26.2109 108.145 26.3828C108.988 26.5469 109.699 26.7344 110.277 26.9453C112.067 27.6016 112.961 28.7383 112.961 30.3555C112.961 31.5117 112.465 32.4492 111.473 33.168C110.481 33.8789 109.199 34.2344 107.629 34.2344C106.567 34.2344 105.621 34.0469 104.793 33.6719C103.973 33.2891 103.328 32.7695 102.859 32.1133C102.391 31.4492 102.156 30.7344 102.156 29.9688H105.367C105.399 30.5703 105.621 31.0312 106.035 31.3516C106.449 31.6719 107.004 31.832 107.699 31.832C108.348 31.832 108.836 31.7109 109.164 31.4688C109.5 31.2188 109.668 30.8945 109.668 30.4961ZM120.988 34.2344C119.129 34.2344 117.613 33.6641 116.442 32.5234C115.277 31.3828 114.695 29.8633 114.695 27.9648V27.6367C114.695 26.3633 114.942 25.2266 115.434 24.2266C115.926 23.2188 116.621 22.4453 117.52 21.9062C118.426 21.3594 119.457 21.0859 120.613 21.0859C122.348 21.0859 123.711 21.6328 124.703 22.7266C125.703 23.8203 126.203 25.3711 126.203 27.3789V28.7617H118.129C118.238 29.5898 118.567 30.2539 119.113 30.7539C119.668 31.2539 120.367 31.5039 121.211 31.5039C122.516 31.5039 123.535 31.0312 124.27 30.0859L125.934 31.9492C125.426 32.668 124.738 33.2305 123.871 33.6367C123.004 34.0352 122.043 34.2344 120.988 34.2344ZM120.602 23.8281C119.93 23.8281 119.383 24.0547 118.961 24.5078C118.547 24.9609 118.281 25.6094 118.164 26.4531H122.875V26.1836C122.859 25.4336 122.656 24.8555 122.266 24.4492C121.875 24.0352 121.32 23.8281 120.602 23.8281ZM131.254 21.3203L131.359 22.7852C132.266 21.6523 133.481 21.0859 135.004 21.0859C136.348 21.0859 137.348 21.4805 138.004 22.2695C138.66 23.0586 138.996 24.2383 139.012 25.8086V34H135.625V25.8906C135.625 25.1719 135.469 24.6523 135.156 24.332C134.844 24.0039 134.324 23.8398 133.598 23.8398C132.645 23.8398 131.93 24.2461 131.453 25.0586V34H128.067V21.3203H131.254ZM148.176 28.0586H141.578V25.3281H148.176V28.0586ZM164.992 34H161.477L154.633 22.7734V34H151.117V16.9375H154.633L161.488 28.1875V16.9375H164.992V34ZM173.676 34.2344C171.817 34.2344 170.301 33.6641 169.129 32.5234C167.965 31.3828 167.383 29.8633 167.383 27.9648V27.6367C167.383 26.3633 167.629 25.2266 168.121 24.2266C168.613 23.2188 169.309 22.4453 170.207 21.9062C171.113 21.3594 172.145 21.0859 173.301 21.0859C175.035 21.0859 176.399 21.6328 177.391 22.7266C178.391 23.8203 178.891 25.3711 178.891 27.3789V28.7617H170.817C170.926 29.5898 171.254 30.2539 171.801 30.7539C172.356 31.2539 173.055 31.5039 173.899 31.5039C175.203 31.5039 176.223 31.0312 176.957 30.0859L178.621 31.9492C178.113 32.668 177.426 33.2305 176.559 33.6367C175.692 34.0352 174.731 34.2344 173.676 34.2344ZM173.289 23.8281C172.617 23.8281 172.07 24.0547 171.649 24.5078C171.234 24.9609 170.969 25.6094 170.852 26.4531H175.563V26.1836C175.547 25.4336 175.344 24.8555 174.953 24.4492C174.563 24.0352 174.008 23.8281 173.289 23.8281ZM187.692 30.4961C187.692 30.082 187.484 29.7578 187.07 29.5234C186.664 29.2812 186.008 29.0664 185.102 28.8789C182.086 28.2461 180.578 26.9648 180.578 25.0352C180.578 23.9102 181.043 22.9727 181.973 22.2227C182.91 21.4648 184.133 21.0859 185.641 21.0859C187.25 21.0859 188.535 21.4648 189.496 22.2227C190.465 22.9805 190.949 23.9648 190.949 25.1758H187.563C187.563 24.6914 187.406 24.293 187.094 23.9805C186.781 23.6602 186.293 23.5 185.629 23.5C185.059 23.5 184.617 23.6289 184.305 23.8867C183.992 24.1445 183.836 24.4727 183.836 24.8711C183.836 25.2461 184.012 25.5508 184.363 25.7852C184.723 26.0117 185.324 26.2109 186.168 26.3828C187.012 26.5469 187.723 26.7344 188.301 26.9453C190.09 27.6016 190.984 28.7383 190.984 30.3555C190.984 31.5117 190.488 32.4492 189.496 33.168C188.504 33.8789 187.223 34.2344 185.652 34.2344C184.59 34.2344 183.645 34.0469 182.817 33.6719C181.996 33.2891 181.352 32.7695 180.883 32.1133C180.414 31.4492 180.18 30.7344 180.18 29.9688H183.391C183.422 30.5703 183.645 31.0312 184.059 31.3516C184.473 31.6719 185.027 31.832 185.723 31.832C186.371 31.832 186.859 31.7109 187.188 31.4688C187.524 31.2188 187.692 30.8945 187.692 30.4961ZM197.231 18.2031V21.3203H199.399V23.8047H197.231V30.1328C197.231 30.6016 197.32 30.9375 197.5 31.1406C197.68 31.3438 198.024 31.4453 198.531 31.4453C198.906 31.4453 199.238 31.418 199.527 31.3633V33.9297C198.863 34.1328 198.18 34.2344 197.477 34.2344C195.102 34.2344 193.891 33.0352 193.844 30.6367V23.8047H191.992V21.3203H193.844V18.2031H197.231Z" fill="#1D1814"/>
</svg>
