<svg width="202" height="41" viewBox="0 0 202 41" fill="none" xmlns="http://www.w3.org/2000/svg">
<path d="M0.5 31.8666C2.09761 28.9718 4.63379 27.0306 7.18506 24.9063C5.7914 24.2756 4.57335 25.2405 3.14759 25.1593C3.8803 23.3031 5.43448 22.7234 6.88102 21.9605C7.57407 21.5942 8.83177 21.9265 8.8431 20.6274C8.85443 19.2942 8.67503 17.9706 7.40789 17.1642C7.08875 16.9603 6.77338 16.745 6.34281 16.4599C8.90542 16.0275 10.486 17.7647 12.3027 18.8448C12.8447 17.6061 12.4349 16.1238 13.6133 15.1929C14.3101 14.6415 14.8691 14.2827 15.2694 15.4534C15.3623 15.7145 15.4773 15.9672 15.6131 16.2088C16.0097 16.9377 16.4648 17.8931 17.2183 17.9347C17.9718 17.9762 17.9567 16.8017 18.3627 16.2144C20.2832 13.4216 21.7845 10.2342 25.0968 8.77641C25.4387 8.62535 25.7899 8.53283 25.535 7.89647C24.9684 6.48591 25.6634 5.49644 26.6038 4.42388C27.6009 3.2909 28.2468 1.82181 29.0456 0.5H30.6677C30.9925 0.807793 31.3022 1.36673 31.6422 1.3875C33.9649 1.52346 35.1376 3.08696 36.1215 4.96393C36.2137 5.15005 36.3523 5.30936 36.5238 5.42657C37.7852 6.18189 38.0572 6.90511 36.7032 7.95312C35.6419 8.77641 35.268 9.73001 36.0214 11.2765C36.8032 12.8873 36.4293 14.6962 35.098 16.1559C34.5315 16.7715 33.7308 17.253 33.5287 18.4219C34.8506 18.4219 36.1177 18.3633 37.3679 18.437C38.5774 18.5031 39.7807 18.6539 40.9691 18.8883C42.1173 19.1319 43.2995 19.3207 44.8102 20.2214H39.5755C40.3101 20.8162 41.1466 21.0541 41.8624 21.4979C43.0162 22.2136 44.5874 22.3269 45.1954 23.8583C45.0781 23.8424 44.9589 23.8706 44.8612 23.9376C43.1616 23.4523 41.4771 22.8556 39.2771 23.2483C41.3921 24.5588 42.9841 25.9599 44.1171 28.0314L41.615 27.6896C40.5046 27.3422 39.4263 27.6387 37.755 27.7519L41.1542 28.6772C41.7774 29.272 42.9086 29.3079 43.1446 30.5655C41.8794 30.3125 40.7369 29.8461 39.5132 30.473C40.159 31.5153 41.4016 32.0648 41.1769 33.5849L38.8371 32.8296L37.6549 32.5596C37.3188 32.2159 36.9751 32.1819 36.5068 32.5596L37.5378 32.6898C37.7267 33.4452 38.9995 33.4924 38.7446 34.6254L37.1734 34.2987C35.8515 33.6246 34.5296 32.9542 32.8545 33.1657C33.5363 34.1495 34.3483 34.9029 34.454 36.051C33.3833 35.9283 32.7544 34.9898 31.848 34.5593C30.7565 34.0381 29.7424 33.1279 28.4488 33.6529C28.666 34.7084 29.1135 35.6243 29.0153 36.727C27.9616 35.9094 26.9891 35.1069 25.9693 34.3742C25.2857 33.8851 24.5756 33.3715 24.3622 34.8878C24.1885 36.1171 23.673 36.2096 22.8723 35.19C21.8015 33.8266 20.4834 32.7824 18.6856 32.5671C18.2399 33.989 18.984 35.4317 18.4005 37.0745C16.969 34.986 15.4677 34.4195 13.364 35.7092C12.365 36.3229 11.0375 36.5703 9.6589 36.3834C9.96672 35.5525 10.6749 35.0918 10.6957 34.2231C9.13581 34.0891 7.67416 35.2617 6.01234 34.5309C7.18128 33.8625 8.32 33.3319 8.63915 31.8023C6.06899 31.6343 4.93027 34.2571 2.66981 34.7991C3.46673 32.7994 4.47138 31.1792 5.5119 29.5817C5.72341 29.4458 6.03311 29.2362 5.82539 29.0152C5.61766 28.7943 5.22675 28.866 5.00203 29.1871C3.32321 29.7687 2.35066 31.5946 0.5 31.8666ZM19.5241 25.7409L20.3663 23.7223C20.6534 23.2559 20.5174 22.4798 21.2841 22.3382C21.7524 23.728 21.4352 25.0215 21.1179 26.3527C21.0197 26.7681 20.0698 27.5159 21.1538 27.7916C21.9299 27.9804 21.9545 27.0646 22.098 26.5415C22.5021 25.1574 22.3039 23.5939 23.2311 22.1985C24.3226 23.9886 23.5559 25.9109 23.9506 27.8426C24.4586 26.8739 25.0138 21.8 24.5171 21.1221C24.0488 20.4688 23.1669 20.127 22.098 19.3981C22.37 20.431 22.3057 21.0976 21.9866 21.649C21.8318 21.919 21.3483 21.8529 21.1708 21.4601C21.0952 21.215 21.0514 20.9611 21.0405 20.7048C21.0669 20.7048 21.1141 20.7218 21.1141 20.735C21.1746 21.2165 20.4759 21.0032 20.5136 21.3657C20.5892 22.121 20.034 22.6422 19.9471 23.3239C19.6393 24.032 19.2238 24.7061 19.2521 25.5275C18.7668 25.9052 18.6856 26.3546 18.9424 26.9268C19.5165 26.6851 19.1861 26.043 19.5241 25.7409ZM6.018 31.5153C7.09063 31.1131 8.2237 30.4522 9.30388 31.1377C10.2103 31.7042 8.97152 32.5936 9.23968 33.3583C11.8117 32.9807 11.8117 32.9807 11.8325 35.1843C13.8021 35.5827 15.4205 32.163 17.4411 34.7764C18.2664 33.6812 16.7802 31.927 18.3438 31.555C19.4372 31.2944 20.6477 32.1649 21.6561 32.89C21.9885 33.1279 22.2812 33.4225 22.6136 33.6585C23.0158 33.9437 23.435 33.989 23.3689 33.3224C23.2518 32.0403 24.0639 32.5671 24.502 32.7446C25.4859 33.1449 26.4188 33.6888 27.363 34.1552C27.6236 33.6774 27.0231 32.5841 27.9446 32.6842C30.6432 32.9807 32.626 30.5353 35.3095 30.7506L34.6655 30.4617C35.2887 29.4873 36.4312 29.5893 37.2942 29.1115C36.4388 28.5715 35.3964 28.6697 34.3275 28.3562C36.7258 26.9966 39.1676 26.6133 41.9436 26.6152C40.5235 24.742 38.7502 24.1132 36.9713 23.1747C38.2385 22.3363 39.4263 22.3174 40.786 22.0568C38.8711 21.0579 37.0185 20.9238 35.0848 20.8521C35.3586 19.9514 36.3141 20.1251 36.6446 19.3887C34.9186 18.9978 33.1812 19.5378 31.5081 19.011C31.1304 18.8939 30.4052 19.2924 30.1352 19.6738C28.2732 22.2966 27.7841 22.4364 25.4141 20.5688V25.401C25.4141 28.1749 25.297 27.7444 22.6985 28.4846C20.3758 29.1474 17.9775 27.954 15.5716 29.8612C16.4138 26.7417 17.4959 24.4021 18.5402 22.0398C17.9548 21.7226 17.5563 21.851 17.0521 22.2287C16.2323 22.8141 15.3584 23.32 14.4423 23.7393C13.719 24.0886 12.9165 24.083 12.4934 23.2635C12.0704 22.4439 12.9013 22.1947 13.3413 21.8623C14.0464 21.3602 14.7763 20.8939 15.5282 20.465C16.4818 19.8834 17.1295 19.2603 16.0456 18.1783C15.6724 17.7766 15.3284 17.3488 15.0164 16.898C14.7445 16.5203 14.6387 15.8141 14.0929 15.9538C13.483 16.1181 13.3376 16.8168 13.2507 17.4267C13.2158 17.7733 13.2158 18.1225 13.2507 18.4691C13.3923 20.3064 12.5274 19.9929 11.4472 19.4132C10.7939 19.0639 10.3406 18.0782 9.29255 18.6371C10.0479 19.5492 9.00929 21.4696 11.2282 21.5281C9.33032 22.2136 7.45132 22.3495 5.44581 23.8205H10.8939C8.75057 25.1857 6.88668 25.9335 5.4477 27.6254C6.78282 27.6991 7.92154 26.8267 9.21134 27.6141C7.79502 28.7018 6.37869 29.5666 5.64032 31.1245L5.23997 31.6909C5.55911 31.8873 5.82538 31.8571 6.018 31.5097V31.5153ZM31.7574 10.5231C32.9546 9.49397 34.5069 10.0246 35.0583 8.56492C36.2575 5.38503 33.8327 1.93699 30.5658 2.23912C28.5602 2.42795 25.8447 6.05727 26.7794 7.54336C27.6462 8.91049 27.295 9.3108 25.8541 9.59027C26.2406 9.66812 26.6345 9.70296 27.0287 9.69413C28.6226 9.70735 30.5525 9.31647 31.1719 11.3426C31.7083 13.1044 30.7112 14.498 29.4497 15.8519C27.9824 17.4248 26.0902 18.1348 24.1621 19.2508C27.4007 19.5529 30.1201 18.6975 32.66 17.1737C33.2681 16.8111 34.218 16.3277 32.7733 15.7272C32.4259 15.5818 32.135 15.2967 32.3522 14.9568C32.4882 14.7453 32.949 14.6075 33.219 14.6623C33.7704 14.7774 34.3747 15.376 34.7996 14.6075C35.3926 13.5312 35.2566 12.283 35.03 11.1632C34.8279 10.1756 33.7969 10.6232 33.1133 10.5193C32.7941 10.4759 32.4523 10.5174 31.7574 10.5174V10.5231ZM16.852 20.9087C17.3902 21.1334 18.0417 20.8955 18.7404 20.5575C21.7373 19.0979 24.5077 17.1945 27.7274 16.1465C29.0361 15.7197 29.9671 14.2582 30.2579 12.6871C30.5072 11.3407 30.0068 10.6553 28.5829 10.5193C26.0127 10.2738 23.8618 11.0556 22.013 12.874C20.8932 13.9787 19.6261 15.0871 19.5014 16.7413C19.3428 18.7901 17.8188 19.6228 16.8614 20.8993L16.852 20.9087ZM39.1185 30.5938C39.3923 30.5938 39.6548 30.5938 39.5887 30.1973C39.5377 29.8801 39.2998 29.797 39.0222 29.7913C38.7446 29.7856 38.4556 29.7913 38.4349 30.1331C38.3895 30.6505 38.8692 30.4617 39.1185 30.5938Z" fill="#353335"/>
<path d="M5.64024 31.1432C6.38239 29.5853 7.79494 28.7205 9.21127 27.6329C7.92147 26.8454 6.78274 27.7178 5.44762 27.6442C6.88661 25.9447 8.75049 25.2045 10.8939 23.8393H5.44385C7.45692 22.3683 9.32835 22.2323 11.2262 21.5469C9.00732 21.494 10.0384 19.5679 9.29059 18.6559C10.3387 18.0894 10.7919 19.0826 11.4453 19.432C12.5255 19.9985 13.3904 20.3214 13.2487 18.4878C13.2138 18.1412 13.2138 17.792 13.2487 17.4455C13.3281 16.8356 13.481 16.1369 14.091 15.9726C14.6424 15.8253 14.7425 16.5391 15.0144 16.9168C15.3265 17.3675 15.6704 17.7954 16.0436 18.197C17.1276 19.279 16.4798 19.8965 15.5262 20.4837C14.7743 20.9126 14.0445 21.379 13.3394 21.8811C12.8994 22.2134 12.0704 22.4721 12.4915 23.2822C12.9126 24.0923 13.7171 24.1074 14.4403 23.7581C15.3564 23.3387 16.2303 22.8329 17.0502 22.2474C17.5544 21.8698 17.9528 21.7376 18.5382 22.0586C17.4939 24.4209 16.4119 26.7605 15.5696 29.8799C17.9736 27.9727 20.3738 29.1661 22.6966 28.5034C25.2951 27.7631 25.4102 28.1937 25.4121 25.4198V20.5668C27.7821 22.4344 28.2712 22.2946 30.1332 19.6718C30.4033 19.2941 31.136 18.8919 31.5061 19.009C33.1793 19.532 34.9166 18.992 36.6427 19.3866C36.3122 20.1231 35.3566 19.9531 35.0828 20.8501C37.0166 20.9218 38.8691 21.0559 40.784 22.0548C39.43 22.3154 38.2365 22.3343 36.9694 23.1727C38.7483 24.1168 40.5215 24.74 41.9416 26.6132C39.1656 26.6132 36.7239 26.9908 34.3255 28.3542C35.3944 28.6752 36.4368 28.577 37.2923 29.1095C36.4293 29.5854 35.2868 29.4872 34.6636 30.4577L35.3 30.7353C32.6222 30.5201 30.6393 32.9654 27.9351 32.6689C27.0135 32.5689 27.6141 33.6622 27.3534 34.1399C26.4092 33.666 25.4763 33.1297 24.4925 32.7294C24.06 32.5538 23.248 32.025 23.3594 33.3072C23.4217 33.9738 23.0025 33.9284 22.604 33.6433C22.2717 33.4073 21.979 33.1127 21.6466 32.8748C20.6382 32.1497 19.4277 31.2792 18.3343 31.5397C16.7707 31.9174 18.2569 33.666 17.4316 34.7612C15.4129 32.1497 13.7926 35.5675 11.823 35.1691C11.8022 32.9635 11.8022 32.9635 9.23015 33.3431C8.962 32.5877 10.2008 31.6965 9.29436 31.1224C8.21418 30.4408 7.08112 31.1017 6.00849 31.5001L5.64024 31.1432Z" fill="#F5E4D1"/>
<path d="M31.7575 10.5175C32.4524 10.5175 32.7942 10.4759 33.1228 10.5175C33.8064 10.6213 34.8375 10.1738 35.0396 11.1614C35.2662 12.2811 35.4021 13.5293 34.8092 14.6056C34.3843 15.3742 33.78 14.7756 33.2286 14.6604C32.9585 14.6056 32.4977 14.7435 32.3618 14.955C32.1446 15.2949 32.4354 15.58 32.7829 15.7254C34.2275 16.3259 33.2777 16.8093 32.6696 17.1718C30.1221 18.6825 27.4027 19.5435 24.1716 19.249C26.0978 18.1292 27.99 17.4192 29.4592 15.85C30.7207 14.4961 31.7254 13.1025 31.1815 11.3408C30.5621 9.30706 28.6321 9.7055 27.0383 9.69228C26.6441 9.70111 26.2502 9.66628 25.8637 9.58843C27.3045 9.30896 27.6558 8.90863 26.789 7.5415C25.8448 6.05541 28.5698 2.42233 30.5753 2.23728C33.8423 1.93515 36.2671 5.38318 35.0679 8.56308C34.507 10.019 32.9547 9.48834 31.7575 10.5175Z" fill="#7D6C59"/>
<path d="M16.8613 20.8992C17.8282 19.6227 19.3522 18.79 19.5051 16.7317C19.6298 15.0776 20.8969 13.9692 22.0167 12.8645C23.8617 11.0461 26.0165 10.2643 28.5866 10.5098C30.0105 10.6458 30.5109 11.3312 30.2617 12.6776C29.9708 14.2467 29.0398 15.7102 27.7312 16.1369C24.5208 17.1849 21.741 19.0883 18.7441 20.548C18.0416 20.886 17.3901 21.1239 16.8613 20.8992ZM23.8259 14.326C24.0449 14.2241 24.3471 14.1051 24.043 13.8275C23.7824 13.5896 23.6351 13.9673 23.4406 14.0768C23.3335 14.1305 23.2472 14.2181 23.1951 14.326C22.6815 14.6905 22.0092 14.8283 21.6844 15.459C20.98 15.7744 20.2964 16.1086 19.9565 17.3001C20.9196 16.8375 21.5465 16.4409 22.0338 15.8102C22.5285 15.4968 23.1083 15.2966 23.401 14.7169L23.8259 14.326Z" fill="#7D6C59"/>
<path d="M19.9678 23.3257C20.0509 22.644 20.6061 22.1172 20.5343 21.3675C20.4965 21.005 21.1953 21.2183 21.1348 20.7368C21.1348 20.7236 21.0876 20.7161 21.0612 20.7066C21.0721 20.9629 21.1158 21.2168 21.1915 21.4619C21.369 21.8604 21.8524 21.9265 22.0073 21.6508C22.3264 21.105 22.385 20.4328 22.1187 19.3999C23.1875 20.1288 24.0694 20.4706 24.5378 21.1239C25.0288 21.8113 24.4736 26.8757 23.9712 27.8444C23.5766 25.9127 24.3489 23.9904 23.2518 22.2003C22.3226 23.59 22.5209 25.1536 22.1187 26.5433C21.9657 27.0664 21.9412 27.9917 21.1745 27.7934C20.0905 27.5177 21.0404 26.7699 21.1386 26.3545C21.4559 25.0233 21.7731 23.7298 21.3048 22.34C20.5381 22.4816 20.674 23.2577 20.387 23.7241L19.9678 23.3257Z" fill="#7D6C59"/>
<path d="M19.2729 25.5293C19.2445 24.7079 19.66 24.0338 19.9678 23.3257L20.3663 23.7166C20.0843 24.3888 19.8035 25.0617 19.524 25.7351L19.2729 25.5293Z" fill="#7D6C59"/>
<path d="M19.5242 25.741C19.1862 26.0488 19.5242 26.6851 18.9577 26.9344C18.6952 26.3679 18.782 25.9034 19.2674 25.5352L19.5242 25.741Z" fill="#7D6C59"/>
<path d="M22.0243 15.8141C21.5409 16.4448 20.9139 16.8413 19.947 17.304C20.2869 16.1125 20.9706 15.7782 21.6749 15.4629L22.0243 15.8141Z" fill="#353335"/>
<path d="M23.3915 14.7207C23.0988 15.3004 22.5191 15.5006 22.0243 15.814L21.6787 15.4628C21.9997 14.8283 22.672 14.6905 23.1895 14.3298L23.3915 14.7207Z" fill="#353335"/>
<path d="M23.4312 14.0767C23.62 13.9672 23.773 13.5896 24.0336 13.8275C24.3376 14.1051 24.0336 14.224 23.8164 14.326L23.4312 14.0767Z" fill="#353335"/>
<path d="M55.8301 9.5V2.39062H58.3203C59.1829 2.39062 59.8372 2.55664 60.2832 2.88867C60.7292 3.21745 60.9521 3.70085 60.9521 4.33887C60.9521 4.68717 60.8626 4.99479 60.6836 5.26172C60.5046 5.52539 60.2555 5.71908 59.9365 5.84277C60.3011 5.93392 60.5876 6.11784 60.7959 6.39453C61.0075 6.67122 61.1133 7.00977 61.1133 7.41016C61.1133 8.09375 60.8952 8.61133 60.459 8.96289C60.0228 9.31445 59.401 9.49349 58.5938 9.5H55.8301ZM57.2949 6.4043V8.32324H58.5498C58.8949 8.32324 59.1634 8.24186 59.3555 8.0791C59.5508 7.91309 59.6484 7.68522 59.6484 7.39551C59.6484 6.74447 59.3115 6.41406 58.6377 6.4043H57.2949ZM57.2949 5.36914H58.3789C59.1178 5.35612 59.4873 5.06152 59.4873 4.48535C59.4873 4.16309 59.3929 3.93197 59.2041 3.79199C59.0186 3.64876 58.724 3.57715 58.3203 3.57715H57.2949V5.36914ZM66.5881 8.96289C66.2398 9.38607 65.758 9.59766 65.1428 9.59766C64.5764 9.59766 64.1434 9.4349 63.8439 9.10938C63.5477 8.78385 63.3964 8.30697 63.3898 7.67871V4.2168H64.801V7.62988C64.801 8.18001 65.0516 8.45508 65.5529 8.45508C66.0314 8.45508 66.3602 8.28906 66.5393 7.95703V4.2168H67.9553V9.5H66.6271L66.5881 8.96289ZM71.6186 4.2168L71.6625 4.82715C72.0401 4.35514 72.5463 4.11914 73.1811 4.11914C73.741 4.11914 74.1576 4.28353 74.4311 4.6123C74.7045 4.94108 74.8445 5.43262 74.851 6.08691V9.5H73.4398V6.12109C73.4398 5.82161 73.3747 5.60514 73.2445 5.47168C73.1143 5.33496 72.8979 5.2666 72.5951 5.2666C72.198 5.2666 71.9001 5.43587 71.7016 5.77441V9.5H70.2904V4.2168H71.6186ZM77.0201 6.81934C77.0201 6.00879 77.2122 5.35612 77.5963 4.86133C77.9837 4.36654 78.5045 4.11914 79.1588 4.11914C79.7382 4.11914 80.1891 4.31771 80.5113 4.71484L80.5699 4.2168H81.8492V9.32422C81.8492 9.78646 81.7434 10.1885 81.5318 10.5303C81.3235 10.8721 81.0289 11.1325 80.648 11.3115C80.2672 11.4906 79.8212 11.5801 79.3102 11.5801C78.9228 11.5801 78.5452 11.502 78.1773 11.3457C77.8095 11.1927 77.5312 10.9941 77.3424 10.75L77.9674 9.89062C78.3189 10.2845 78.7454 10.4814 79.2467 10.4814C79.621 10.4814 79.9124 10.3805 80.1207 10.1787C80.329 9.98014 80.4332 9.69694 80.4332 9.3291V9.0459C80.1077 9.41374 79.6796 9.59766 79.149 9.59766C78.5143 9.59766 77.9999 9.35026 77.6061 8.85547C77.2154 8.35742 77.0201 7.69824 77.0201 6.87793V6.81934ZM78.4312 6.92188C78.4312 7.40039 78.5273 7.77637 78.7193 8.0498C78.9114 8.31999 79.1751 8.45508 79.5104 8.45508C79.94 8.45508 80.2477 8.29395 80.4332 7.97168V5.75C80.2444 5.42773 79.94 5.2666 79.5201 5.2666C79.1816 5.2666 78.9146 5.40495 78.7193 5.68164C78.5273 5.95833 78.4312 6.37174 78.4312 6.92188ZM87.2996 9.5C87.2345 9.37305 87.1873 9.21517 87.158 9.02637C86.8162 9.40723 86.3719 9.59766 85.825 9.59766C85.3074 9.59766 84.8777 9.44792 84.5359 9.14844C84.1974 8.84896 84.0281 8.47135 84.0281 8.01562C84.0281 7.45573 84.2348 7.02604 84.6482 6.72656C85.0649 6.42708 85.6655 6.27572 86.45 6.27246H87.0994V5.96973C87.0994 5.72559 87.0359 5.53027 86.909 5.38379C86.7853 5.2373 86.5883 5.16406 86.3182 5.16406C86.0805 5.16406 85.8934 5.22103 85.7566 5.33496C85.6232 5.44889 85.5564 5.60514 85.5564 5.80371H84.1453C84.1453 5.49772 84.2397 5.21452 84.4285 4.9541C84.6173 4.69368 84.8842 4.49023 85.2293 4.34375C85.5743 4.19401 85.9617 4.11914 86.3914 4.11914C87.0424 4.11914 87.5584 4.28353 87.9393 4.6123C88.3234 4.93783 88.5154 5.39681 88.5154 5.98926V8.2793C88.5187 8.7806 88.5887 9.15983 88.7254 9.41699V9.5H87.2996ZM86.1326 8.51855C86.341 8.51855 86.533 8.47298 86.7088 8.38184C86.8846 8.28743 87.0148 8.16211 87.0994 8.00586V7.09766H86.5721C85.8657 7.09766 85.4897 7.3418 85.4441 7.83008L85.4393 7.91309C85.4393 8.08887 85.5011 8.23372 85.6248 8.34766C85.7485 8.46159 85.9178 8.51855 86.1326 8.51855ZM92.3887 9.5H90.9727V2H92.3887V9.5ZM94.6359 6.80957C94.6359 6.28548 94.7368 5.81836 94.9387 5.4082C95.1405 4.99805 95.4302 4.68066 95.8078 4.45605C96.1887 4.23145 96.6298 4.11914 97.1311 4.11914C97.8439 4.11914 98.425 4.33724 98.8742 4.77344C99.3267 5.20964 99.579 5.80208 99.6311 6.55078L99.6408 6.91211C99.6408 7.72266 99.4146 8.3737 98.9621 8.86523C98.5096 9.35352 97.9025 9.59766 97.1408 9.59766C96.3791 9.59766 95.7704 9.35352 95.3146 8.86523C94.8622 8.37695 94.6359 7.71289 94.6359 6.87305V6.80957ZM96.0471 6.91211C96.0471 7.41341 96.1415 7.79753 96.3303 8.06445C96.5191 8.32812 96.7893 8.45996 97.1408 8.45996C97.4826 8.45996 97.7495 8.32975 97.9416 8.06934C98.1337 7.80566 98.2297 7.38574 98.2297 6.80957C98.2297 6.31803 98.1337 5.93717 97.9416 5.66699C97.7495 5.39681 97.4794 5.26172 97.1311 5.26172C96.786 5.26172 96.5191 5.39681 96.3303 5.66699C96.1415 5.93392 96.0471 6.34896 96.0471 6.91211ZM106.405 7.58105L107.098 4.2168H108.46L107.113 9.5H105.931L104.93 6.1748L103.929 9.5H102.752L101.405 4.2168H102.767L103.455 7.57617L104.422 4.2168H105.443L106.405 7.58105Z" fill="#FFFDFB"/>
<path d="M61.3125 17.4375L65.6953 29.8125L70.0547 17.4375H74.6719V34.5H71.1445V29.8359L71.4961 21.7852L66.8906 34.5H64.4766L59.8828 21.7969L60.2344 29.8359V34.5H56.7188V17.4375H61.3125ZM85.1133 33.2109C84.2773 34.2266 83.1211 34.7344 81.6445 34.7344C80.2852 34.7344 79.2461 34.3438 78.5273 33.5625C77.8164 32.7812 77.4531 31.6367 77.4375 30.1289V21.8203H80.8242V30.0117C80.8242 31.332 81.4258 31.9922 82.6289 31.9922C83.7773 31.9922 84.5664 31.5938 84.9961 30.7969V21.8203H88.3945V34.5H85.207L85.1133 33.2109ZM97.8164 30.9961C97.8164 30.582 97.6094 30.2578 97.1953 30.0234C96.7891 29.7812 96.1328 29.5664 95.2266 29.3789C92.2109 28.7461 90.7031 27.4648 90.7031 25.5352C90.7031 24.4102 91.168 23.4727 92.0977 22.7227C93.0352 21.9648 94.2578 21.5859 95.7656 21.5859C97.375 21.5859 98.6602 21.9648 99.6211 22.7227C100.59 23.4805 101.074 24.4648 101.074 25.6758H97.6875C97.6875 25.1914 97.5312 24.793 97.2188 24.4805C96.9062 24.1602 96.418 24 95.7539 24C95.1836 24 94.7422 24.1289 94.4297 24.3867C94.1172 24.6445 93.9609 24.9727 93.9609 25.3711C93.9609 25.7461 94.1367 26.0508 94.4883 26.2852C94.8477 26.5117 95.4492 26.7109 96.293 26.8828C97.1367 27.0469 97.8477 27.2344 98.4258 27.4453C100.215 28.1016 101.109 29.2383 101.109 30.8555C101.109 32.0117 100.613 32.9492 99.6211 33.668C98.6289 34.3789 97.3477 34.7344 95.7773 34.7344C94.7148 34.7344 93.7695 34.5469 92.9414 34.1719C92.1211 33.7891 91.4766 33.2695 91.0078 32.6133C90.5391 31.9492 90.3047 31.2344 90.3047 30.4688H93.5156C93.5469 31.0703 93.7695 31.5312 94.1836 31.8516C94.5977 32.1719 95.1523 32.332 95.8477 32.332C96.4961 32.332 96.9844 32.2109 97.3125 31.9688C97.6484 31.7188 97.8164 31.3945 97.8164 30.9961ZM110.168 30.9961C110.168 30.582 109.961 30.2578 109.547 30.0234C109.141 29.7812 108.484 29.5664 107.578 29.3789C104.562 28.7461 103.055 27.4648 103.055 25.5352C103.055 24.4102 103.52 23.4727 104.449 22.7227C105.387 21.9648 106.609 21.5859 108.117 21.5859C109.727 21.5859 111.012 21.9648 111.973 22.7227C112.941 23.4805 113.426 24.4648 113.426 25.6758H110.039C110.039 25.1914 109.883 24.793 109.57 24.4805C109.258 24.1602 108.77 24 108.105 24C107.535 24 107.094 24.1289 106.781 24.3867C106.469 24.6445 106.312 24.9727 106.312 25.3711C106.312 25.7461 106.488 26.0508 106.84 26.2852C107.199 26.5117 107.801 26.7109 108.645 26.8828C109.488 27.0469 110.199 27.2344 110.777 27.4453C112.566 28.1016 113.461 29.2383 113.461 30.8555C113.461 32.0117 112.965 32.9492 111.973 33.668C110.98 34.3789 109.699 34.7344 108.129 34.7344C107.066 34.7344 106.121 34.5469 105.293 34.1719C104.473 33.7891 103.828 33.2695 103.359 32.6133C102.891 31.9492 102.656 31.2344 102.656 30.4688H105.867C105.898 31.0703 106.121 31.5312 106.535 31.8516C106.949 32.1719 107.504 32.332 108.199 32.332C108.848 32.332 109.336 32.2109 109.664 31.9688C110 31.7188 110.168 31.3945 110.168 30.9961ZM121.488 34.7344C119.629 34.7344 118.113 34.1641 116.941 33.0234C115.777 31.8828 115.195 30.3633 115.195 28.4648V28.1367C115.195 26.8633 115.441 25.7266 115.934 24.7266C116.426 23.7188 117.121 22.9453 118.02 22.4062C118.926 21.8594 119.957 21.5859 121.113 21.5859C122.848 21.5859 124.211 22.1328 125.203 23.2266C126.203 24.3203 126.703 25.8711 126.703 27.8789V29.2617H118.629C118.738 30.0898 119.066 30.7539 119.613 31.2539C120.168 31.7539 120.867 32.0039 121.711 32.0039C123.016 32.0039 124.035 31.5312 124.77 30.5859L126.434 32.4492C125.926 33.168 125.238 33.7305 124.371 34.1367C123.504 34.5352 122.543 34.7344 121.488 34.7344ZM121.102 24.3281C120.43 24.3281 119.883 24.5547 119.461 25.0078C119.047 25.4609 118.781 26.1094 118.664 26.9531H123.375V26.6836C123.359 25.9336 123.156 25.3555 122.766 24.9492C122.375 24.5352 121.82 24.3281 121.102 24.3281ZM131.754 21.8203L131.859 23.2852C132.766 22.1523 133.98 21.5859 135.504 21.5859C136.848 21.5859 137.848 21.9805 138.504 22.7695C139.16 23.5586 139.496 24.7383 139.512 26.3086V34.5H136.125V26.3906C136.125 25.6719 135.969 25.1523 135.656 24.832C135.344 24.5039 134.824 24.3398 134.098 24.3398C133.145 24.3398 132.43 24.7461 131.953 25.5586V34.5H128.566V21.8203H131.754ZM148.676 28.5586H142.078V25.8281H148.676V28.5586ZM165.492 34.5H161.977L155.133 23.2734V34.5H151.617V17.4375H155.133L161.988 28.6875V17.4375H165.492V34.5ZM174.176 34.7344C172.316 34.7344 170.801 34.1641 169.629 33.0234C168.465 31.8828 167.883 30.3633 167.883 28.4648V28.1367C167.883 26.8633 168.129 25.7266 168.621 24.7266C169.113 23.7188 169.809 22.9453 170.707 22.4062C171.613 21.8594 172.645 21.5859 173.801 21.5859C175.535 21.5859 176.898 22.1328 177.891 23.2266C178.891 24.3203 179.391 25.8711 179.391 27.8789V29.2617H171.316C171.426 30.0898 171.754 30.7539 172.301 31.2539C172.855 31.7539 173.555 32.0039 174.398 32.0039C175.703 32.0039 176.723 31.5312 177.457 30.5859L179.121 32.4492C178.613 33.168 177.926 33.7305 177.059 34.1367C176.191 34.5352 175.23 34.7344 174.176 34.7344ZM173.789 24.3281C173.117 24.3281 172.57 24.5547 172.148 25.0078C171.734 25.4609 171.469 26.1094 171.352 26.9531H176.062V26.6836C176.047 25.9336 175.844 25.3555 175.453 24.9492C175.062 24.5352 174.508 24.3281 173.789 24.3281ZM188.191 30.9961C188.191 30.582 187.984 30.2578 187.57 30.0234C187.164 29.7812 186.508 29.5664 185.602 29.3789C182.586 28.7461 181.078 27.4648 181.078 25.5352C181.078 24.4102 181.543 23.4727 182.473 22.7227C183.41 21.9648 184.633 21.5859 186.141 21.5859C187.75 21.5859 189.035 21.9648 189.996 22.7227C190.965 23.4805 191.449 24.4648 191.449 25.6758H188.062C188.062 25.1914 187.906 24.793 187.594 24.4805C187.281 24.1602 186.793 24 186.129 24C185.559 24 185.117 24.1289 184.805 24.3867C184.492 24.6445 184.336 24.9727 184.336 25.3711C184.336 25.7461 184.512 26.0508 184.863 26.2852C185.223 26.5117 185.824 26.7109 186.668 26.8828C187.512 27.0469 188.223 27.2344 188.801 27.4453C190.59 28.1016 191.484 29.2383 191.484 30.8555C191.484 32.0117 190.988 32.9492 189.996 33.668C189.004 34.3789 187.723 34.7344 186.152 34.7344C185.09 34.7344 184.145 34.5469 183.316 34.1719C182.496 33.7891 181.852 33.2695 181.383 32.6133C180.914 31.9492 180.68 31.2344 180.68 30.4688H183.891C183.922 31.0703 184.145 31.5312 184.559 31.8516C184.973 32.1719 185.527 32.332 186.223 32.332C186.871 32.332 187.359 32.2109 187.688 31.9688C188.023 31.7188 188.191 31.3945 188.191 30.9961ZM197.73 18.7031V21.8203H199.898V24.3047H197.73V30.6328C197.73 31.1016 197.82 31.4375 198 31.6406C198.18 31.8438 198.523 31.9453 199.031 31.9453C199.406 31.9453 199.738 31.918 200.027 31.8633V34.4297C199.363 34.6328 198.68 34.7344 197.977 34.7344C195.602 34.7344 194.391 33.5352 194.344 31.1367V24.3047H192.492V21.8203H194.344V18.7031H197.73Z" fill="#FFFDFB"/>
</svg>
