<svg width="216" height="46" viewBox="0 0 216 46" fill="none" xmlns="http://www.w3.org/2000/svg">
<g clip-path="url(#clip0)">
<path d="M214.786 30.7032C214.116 30.7032 213.572 31.2473 213.572 31.9173C213.572 32.5873 214.116 33.1315 214.786 33.1315C215.456 33.1315 216 32.5873 216 31.9173C216 31.2473 215.456 30.7032 214.786 30.7032ZM214.786 32.939C214.221 32.939 213.764 32.4794 213.764 31.9173C213.764 31.3526 214.224 30.8957 214.786 30.8957C215.351 30.8957 215.81 31.3552 215.81 31.9173C215.81 32.4795 215.351 32.939 214.786 32.939ZM215.181 31.7094C215.181 31.4886 215.025 31.3577 214.793 31.3577H214.406V32.4641H214.596V32.0637H214.804L215.004 32.4641H215.209L214.988 32.0226C215.107 31.9687 215.181 31.8608 215.181 31.7094ZM214.786 31.8916H214.598V31.5246H214.786C214.914 31.5246 214.991 31.5888 214.991 31.7069C214.991 31.8275 214.912 31.8916 214.786 31.8916ZM68.4884 18.4152V15.4786H63.986V32.9492H68.4884V22.4736C68.4884 20.5766 69.7051 19.6448 71.6021 19.6448H74.0664V15.4787H71.9615C70.3135 15.4786 68.8811 16.3386 68.4884 18.4152ZM78.2839 8.56848C76.7437 8.56848 75.5629 9.78523 75.5629 11.3254C75.5629 12.8296 76.7437 14.0464 78.2839 14.0464C79.824 14.0464 81.0048 12.8296 81.0048 11.3254C81.0048 9.78516 79.824 8.56848 78.2839 8.56848ZM76.0378 32.9493H80.5299V15.4786H76.0378V32.9493ZM101.928 24.2139C101.928 29.2015 97.885 33.2445 92.8974 33.2445C90.8848 33.2445 89.0598 32.5848 87.5966 31.4707V38.078H83.1045V15.4786H87.5966V16.9572C89.0598 15.8431 90.8848 15.1834 92.8974 15.1834C97.885 15.1834 101.928 19.2264 101.928 24.2139ZM97.4075 24.2139C97.4075 21.5058 95.2102 19.3085 92.5021 19.3085C89.7939 19.3085 87.5967 21.5058 87.5967 24.2139C87.5967 26.9221 89.794 29.1194 92.5021 29.1194C95.2102 29.1194 97.4075 26.9247 97.4075 24.2139ZM180.004 22.6815L177.383 21.9627C175.658 21.5135 174.988 20.9847 174.988 20.0735C174.988 19.1853 175.933 18.5641 177.283 18.5641C178.569 18.5641 179.578 19.4061 179.578 20.4842V20.5842H183.718V20.4842C183.718 17.3139 181.133 15.1834 177.283 15.1834C173.471 15.1834 170.701 17.3114 170.701 20.2454C170.701 22.5274 172.213 24.2472 174.852 24.9608L177.362 25.6462C179.27 26.175 179.978 26.7603 179.978 27.8102C179.978 28.9166 178.954 29.6609 177.429 29.6609C175.84 29.6609 174.77 28.6547 174.77 27.1607V27.0606H170.375V27.1607C170.375 30.7442 173.261 33.2495 177.393 33.2495C181.375 33.2495 184.265 30.8032 184.265 27.4354C184.265 25.7823 183.526 23.621 180.004 22.6815ZM117.863 15.4786H122.356V32.9492H117.863V31.4706C116.4 32.5847 114.575 33.2444 112.563 33.2444C107.575 33.2444 103.532 29.2015 103.532 24.2139C103.532 19.2263 107.575 15.1834 112.563 15.1834C114.575 15.1834 116.4 15.8431 117.863 16.9571V15.4786V15.4786ZM117.863 24.2139C117.863 21.5033 115.666 19.3085 112.958 19.3085C110.25 19.3085 108.053 21.5058 108.053 24.2139C108.053 26.9221 110.25 29.1194 112.958 29.1194C115.669 29.1194 117.863 26.9247 117.863 24.2139ZM138.576 9.26154H143.068V32.9518H138.576V31.4732C137.113 32.5873 135.288 33.247 133.275 33.247C128.288 33.247 124.245 29.204 124.245 24.2164C124.245 19.2288 128.288 15.186 133.275 15.186C135.288 15.186 137.113 15.8456 138.576 16.9597V9.26154ZM138.576 24.2139C138.576 21.5058 136.379 19.3085 133.671 19.3085C130.962 19.3085 128.765 21.5058 128.765 24.2139C128.765 26.9221 130.96 29.1194 133.671 29.1194C136.379 29.1194 138.576 26.9247 138.576 24.2139ZM163.924 32.9493H168.417V15.4786H163.924V32.9493ZM166.171 8.56848C164.63 8.56848 163.45 9.78523 163.45 11.3254C163.45 12.8296 164.63 14.0464 166.171 14.0464C167.711 14.0464 168.892 12.8296 168.892 11.3254C168.892 9.78516 167.711 8.56848 166.171 8.56848ZM203.681 24.2139C203.681 29.2015 199.638 33.2445 194.651 33.2445C189.663 33.2445 185.62 29.2015 185.62 24.2139C185.62 19.2264 189.663 15.1834 194.651 15.1834C199.638 15.1834 203.681 19.2264 203.681 24.2139ZM199.556 24.2139C199.556 21.5058 197.359 19.3085 194.651 19.3085C191.943 19.3085 189.745 21.5058 189.745 24.2139C189.745 26.9221 191.94 29.1194 194.651 29.1194C197.359 29.1194 199.556 26.9247 199.556 24.2139ZM66.1884 9.26154H48.9565V13.2685H55.3354V32.9492H59.8121V13.2685H66.191V9.26154H66.1884ZM153.333 28.1645L149.337 15.4787H144.619L150.612 32.9493H156.018L162.048 15.4787H157.33L153.333 28.1645ZM210.263 18.4152V15.4786H205.76V32.9492H210.263V22.4736C210.263 20.5766 211.48 19.6448 213.377 19.6448H215.841V15.4787H213.736C212.088 15.4786 210.658 16.3386 210.263 18.4152Z" fill="#FFFDFB"/>
<path d="M22.975 45.9481C35.6633 45.9481 45.9491 35.6623 45.9491 22.9741C45.9491 10.2858 35.6633 0 22.975 0C10.2868 0 0.000976562 10.2858 0.000976562 22.9741C0.000976562 35.6623 10.2868 45.9481 22.975 45.9481Z" fill="#77823F"/>
<path d="M37.1641 18.4922L39.9364 15.4761H33.7885C30.7108 13.3737 26.9938 12.1493 22.974 12.1493C18.9593 12.1493 15.2527 13.3763 12.18 15.4761H6.01685L8.78914 18.4922C7.08985 20.0426 6.02457 22.2759 6.02457 24.7556C6.02457 29.4351 9.81855 33.229 14.4981 33.229C16.7211 33.229 18.7463 32.3717 20.2583 30.9701L22.9741 33.9272L25.6899 30.9727C27.2019 32.3742 29.2246 33.229 31.4475 33.229C36.1271 33.229 39.9261 29.4351 39.9261 24.7556C39.9286 22.2733 38.8634 20.0401 37.1641 18.4922ZM14.5006 30.4901C11.3329 30.4901 8.76609 27.9232 8.76609 24.7556C8.76609 21.5879 11.333 19.021 14.5006 19.021C17.6682 19.021 20.2351 21.5879 20.2351 24.7556C20.2351 27.9232 17.6682 30.4901 14.5006 30.4901ZM22.9766 24.5887C22.9766 20.8153 20.2326 17.5758 16.6106 16.1922C18.5692 15.3733 20.7177 14.919 22.974 14.919C25.2304 14.919 27.3814 15.3733 29.34 16.1922C25.7207 17.5784 22.9766 20.8153 22.9766 24.5887ZM31.4501 30.4901C28.2825 30.4901 25.7155 27.9232 25.7155 24.7556C25.7155 21.5879 28.2825 19.021 31.4501 19.021C34.6177 19.021 37.1846 21.5879 37.1846 24.7556C37.1846 27.9232 34.6177 30.4901 31.4501 30.4901ZM31.4501 21.7471C29.7893 21.7471 28.4442 23.0922 28.4442 24.753C28.4442 26.4138 29.7893 27.7589 31.4501 27.7589C33.1109 27.7589 34.456 26.4138 34.456 24.753C34.4559 23.0947 33.1109 21.7471 31.4501 21.7471ZM17.5065 24.7556C17.5065 26.4163 16.1614 27.7614 14.5006 27.7614C12.8398 27.7614 11.4947 26.4163 11.4947 24.7556C11.4947 23.0947 12.8398 21.7496 14.5006 21.7496C16.1614 21.7471 17.5065 23.0947 17.5065 24.7556Z" fill="#FFFDFB"/>
</g>
<defs>
<clipPath id="clip0">
<rect width="216" height="45.9481" fill="white"/>
</clipPath>
</defs>
</svg>
